<?xml version="1.0" encoding="UTF-8"?>
<svg id="Layer_1" data-name="Layer 1" xmlns="http://www.w3.org/2000/svg" xmlns:xlink="http://www.w3.org/1999/xlink" version="1.1" viewBox="0 0 690.53 171.91">
  <defs>
    <style>
      .cls-1 {
        fill: #a38d6e;
      }

      .cls-1, .cls-2, .cls-3 {
        stroke-width: 0px;
      }

      .cls-2 {
        fill: url(#linear-gradient);
      }

      .cls-3 {
        fill: url(#linear-gradient-2);
      }
    </style>
    <linearGradient id="linear-gradient" x1="35.43" y1="24" x2="123.02" y2="132.55" gradientUnits="userSpaceOnUse">
      <stop offset="0" stop-color="#ec6a3a"/>
      <stop offset=".27" stop-color="#e44492"/>
      <stop offset=".36" stop-color="#cc4493"/>
      <stop offset=".56" stop-color="#9d4495"/>
      <stop offset=".74" stop-color="#7b4496"/>
      <stop offset=".89" stop-color="#664497"/>
      <stop offset=".99" stop-color="#5f4498"/>
    </linearGradient>
    <linearGradient id="linear-gradient-2" x1="319.52" y1="52.78" x2="138.53" y2="140.2" gradientUnits="userSpaceOnUse">
      <stop offset="0" stop-color="#ec6a3a"/>
      <stop offset=".33" stop-color="#e44492"/>
      <stop offset=".48" stop-color="#b94493"/>
      <stop offset=".63" stop-color="#924495"/>
      <stop offset=".78" stop-color="#764496"/>
      <stop offset=".91" stop-color="#654497"/>
      <stop offset="1" stop-color="#5f4498"/>
    </linearGradient>
  </defs>
  <g>
    <path class="cls-1" d="M426.03,159.36c-1.79,0-3.41-.44-4.84-1.32-1.44-.88-2.56-2.19-3.39-3.92-.82-1.73-1.23-3.86-1.23-6.37,0-1.76.22-3.62.67-5.58.45-1.96,1.11-3.87,2-5.74.88-1.87,1.97-3.56,3.27-5.09s2.8-2.73,4.51-3.63c1.7-.9,3.59-1.35,5.65-1.35,1.7,0,3.28.4,4.73,1.21,1.45.81,2.61,2.06,3.47,3.77.87,1.7,1.3,3.87,1.3,6.5,0,1.67-.22,3.49-.65,5.45s-1.08,3.88-1.95,5.76c-.87,1.88-1.94,3.6-3.23,5.16-1.29,1.55-2.79,2.8-4.51,3.74-1.72.94-3.65,1.41-5.81,1.41ZM426.79,156.67c1.28,0,2.45-.46,3.5-1.37,1.05-.91,1.96-2.11,2.76-3.61.79-1.49,1.45-3.13,1.97-4.91.52-1.78.91-3.55,1.17-5.31.25-1.76.38-3.35.38-4.75,0-1.79-.19-3.26-.58-4.39-.39-1.13-.93-1.97-1.64-2.51-.7-.54-1.53-.81-2.49-.81-1.26,0-2.41.46-3.45,1.37-1.05.91-1.96,2.12-2.73,3.61-.78,1.5-1.43,3.13-1.97,4.91-.54,1.78-.93,3.55-1.19,5.31s-.38,3.35-.38,4.75c0,1.79.2,3.27.61,4.42.4,1.15.96,1.99,1.68,2.51.72.52,1.51.78,2.38.78Z"/>
    <path class="cls-1" d="M441.41,158.87l.45-2.11h.49c.51,0,.99-.07,1.43-.2.45-.13.86-.41,1.23-.83.37-.42.65-1.06.83-1.93l4.57-21.79c.06-.36.12-.65.18-.87.06-.22.09-.43.09-.61,0-.69-.23-1.12-.69-1.3-.46-.18-1.08-.27-1.86-.27h-.49l.49-2.11h7.8l7.76,24.39,3.95-19.32c.06-.24.11-.49.16-.76.04-.27.07-.48.07-.63,0-.69-.23-1.12-.69-1.3-.46-.18-1.01-.27-1.64-.27h-.4l.45-2.11h9.15l-.49,2.11h-.49c-.51,0-.99.07-1.46.2-.46.13-.86.41-1.19.83-.33.42-.6,1.06-.81,1.93l-5.65,26.95h-3.18l-8.65-26.27-4.3,21.07c-.09.39-.16.7-.2.94-.04.24-.07.43-.07.58,0,.69.24,1.12.72,1.3.48.18,1.03.27,1.66.27h.31l-.45,2.11h-9.06Z"/>
  </g>
  <g>
    <path class="cls-1" d="M487.42,158.87l.45-2.11h.49c.51,0,.99-.06,1.43-.18s.85-.38,1.21-.79c.36-.4.63-1.02.81-1.86l4.62-21.92c.09-.42.16-.72.2-.92s.07-.38.07-.56c0-.69-.23-1.12-.69-1.3-.46-.18-1.08-.27-1.86-.27h-.49l.49-2.11h9.77l1.52,23.05,10.85-23.05h10.04l-.45,2.11h-.45c-.51,0-1,.07-1.48.2-.48.13-.89.41-1.23.83-.34.42-.62,1.08-.83,1.97l-4.57,21.79c-.06.27-.11.54-.16.81-.04.27-.07.48-.07.63,0,.69.22,1.12.67,1.3.45.18,1.05.27,1.79.27h.49l-.49,2.11h-11.97l.49-2.11h.58c.48,0,.95-.06,1.41-.18.46-.12.87-.38,1.23-.79.36-.4.6-.99.72-1.77l4.84-23.4-13.36,28.25h-2.38l-1.88-28.25-4.8,23.18c-.03.24-.08.49-.13.76-.06.27-.09.48-.09.63,0,.69.23,1.12.7,1.3.46.18,1.02.27,1.68.27h.31l-.49,2.11h-9.01Z"/>
    <path class="cls-1" d="M520.73,158.87l.45-2.11h.76c.48,0,.87-.09,1.19-.27.31-.18.63-.52.96-1.03.33-.51.73-1.24,1.21-2.2l13.36-26.41h4.71l1.93,26.27c.06.78.16,1.43.29,1.97.13.54.34.95.63,1.23s.67.43,1.14.43h.67l-.49,2.11h-11.57l.45-2.11h.81c.81,0,1.45-.21,1.93-.63.48-.42.72-1.11.72-2.06,0-.12,0-.27-.02-.45-.02-.18-.02-.33-.02-.45l-.85-15.33c-.03-1.32-.07-2.53-.11-3.65s-.05-2.22-.02-3.3c-.27.72-.54,1.4-.81,2.04-.27.64-.58,1.32-.92,2.02-.34.7-.74,1.53-1.19,2.49l-7.35,15.2c-.27.57-.46,1.07-.58,1.5-.12.43-.18.82-.18,1.14,0,.51.16.88.47,1.12.31.24.81.36,1.5.36h.72l-.45,2.11h-9.33ZM529.7,148.2l.09-2.42h12.6l-.09,2.42h-12.6Z"/>
    <path class="cls-1" d="M548.67,158.87l.45-2.11h.45c.63,0,1.17-.07,1.61-.22s.84-.43,1.17-.83.57-.99.72-1.77l4.57-21.39c.09-.39.16-.72.2-1.01.04-.28.07-.53.07-.74,0-.81-.23-1.31-.69-1.52-.46-.21-1.07-.31-1.82-.31h-.45l.45-2.11h19.41l-1.57,8.07h-2.47c.03-.15.07-.43.11-.83s.09-.81.13-1.21c.04-.4.07-.66.07-.78,0-.78-.19-1.43-.56-1.97s-1.01-.81-1.91-.81h-5.02l-2.38,11.61h8.21l-.49,2.38h-8.29l-2.74,13.09h5.92c.78,0,1.44-.17,2-.52.55-.34,1.02-.79,1.39-1.34.37-.55.67-1.16.87-1.82l.63-1.93h2.47l-1.97,8.07h-20.53Z"/>
    <path class="cls-1" d="M584.94,159.32c-2.72,0-4.8-.64-6.23-1.93s-2.15-3.09-2.15-5.42c0-.6.06-1.35.18-2.24.12-.9.24-1.61.36-2.15l3.32-15.47c.09-.45.16-.79.2-1.03s.07-.42.07-.54c0-.69-.24-1.12-.72-1.3-.48-.18-1.09-.27-1.84-.27h-.45l.45-2.11h12.2l-.4,2.11h-.49c-.51,0-1.01.07-1.5.2-.49.13-.92.41-1.28.83-.36.42-.63,1.06-.81,1.93l-3.36,15.83c-.18.75-.33,1.49-.45,2.22-.12.73-.18,1.41-.18,2.04,0,1.46.37,2.56,1.12,3.29.75.73,1.82,1.1,3.23,1.1,1.49,0,2.69-.34,3.59-1.01.9-.67,1.61-1.61,2.15-2.8.54-1.19.97-2.57,1.3-4.12l3.5-16.54c.06-.27.11-.54.16-.81.04-.27.07-.46.07-.58,0-.69-.24-1.12-.72-1.3-.48-.18-1.09-.27-1.84-.27h-.45l.4-2.11h9.46l-.45,2.11h-.49c-.51,0-1,.07-1.48.2-.48.13-.89.41-1.23.83-.34.42-.62,1.08-.83,1.97l-3.63,17.44c-.42,2.09-1.09,3.88-2.02,5.36-.93,1.48-2.12,2.61-3.56,3.38-1.45.78-3.18,1.17-5.18,1.17Z"/>
    <path class="cls-1" d="M598.84,158.87l.45-2.11h.49c.51,0,.99-.07,1.46-.2.46-.13.87-.41,1.23-.83.36-.42.63-1.06.81-1.93l4.57-21.7c.06-.36.12-.67.18-.92s.09-.47.09-.65c0-.69-.23-1.12-.69-1.3-.46-.18-1.08-.27-1.86-.27h-.49l.49-2.11h12.15l-.45,2.11h-.49c-.51,0-1,.06-1.48.18-.48.12-.9.39-1.25.81-.36.42-.63,1.05-.81,1.88l-5.11,24.57h6.23c.84,0,1.54-.17,2.11-.52.57-.34,1.06-.84,1.48-1.48.42-.64.76-1.43,1.03-2.35l.9-2.96h2.24l-2.42,9.77h-20.85Z"/>
  </g>
  <g>
    <path class="cls-1" d="M404.46,42.17c-12.5-1.22-19.8-9.51-19.8-18.47,0-7.85,5.64-15.7,18.25-18.14.44,0,2.1-.55,2.1-2.1,0-.55-.22-1.22-.66-1.88-.66-.77-1-1.44-1-1.77,0-.44.33-.66,1-.66,1,0,6.97,1.22,6.97,3.32,0,.44-1,2.54-1,3.1,13.16,2.43,19.24,10.62,19.24,18.58,0,8.85-6.86,16.7-18.25,17.92v14.71c7.96-.11,13.93-.44,23-.88,7.41-.44,5.97-2.32,10.17-2.32,1.44,0,12.39.66,12.39,4.53,0,1.22-1.55,2.32-4.31,2.32h-1c-5.86-.55-12.83-.77-20.46-.77-16.81,0-36.5,1.11-52.64,2.1-3.54.22-4.42,1.55-6.86,1.55-3.43,0-13.82-4.42-13.82-6.3,0-.44.44-.66,1.66-.66.44,0,.88,0,1.55.11,6.3.88,12.83,1.22,20.46,1.22,6.64,0,14.16-.22,23-.55v-14.93ZM381.78,75.68c-.22-1.99-2.76-3.21-8.29-4.76-1.33-.33-2.1-.77-2.1-1.22,0-.55,1-1.11,3.43-1.66,5.2,0,9.62.44,11.83.77,1.99.44,2.43,1.11,2.43,2.1,0,.77-.33,1.66-.44,2.88,0,4.98,0,11.17.11,15.26.22,2.32,1.55,3.32,5.31,3.54l23.78-.22c8.07-.55,4.31-2.99,14.04-2.99,2.65,0,8.52,0,8.52,3.65,0,1.22-1.11,2.43-3.1,2.43h-43.58c-7.41-.11-11.5-1.88-11.83-7.52l-.11-12.28ZM390.96,23.81c0,7.08,5.53,14.05,16.7,14.05,10.51,0,15.71-6.97,15.71-14.05s-5.2-14.05-15.71-14.05c-11.17,0-16.7,7.08-16.7,14.05Z"/>
    <path class="cls-1" d="M481.1,66.28c-.77-9.29-1.88-22.89-2.43-33.18-.33-2.21-.44-3.43-7.41-6.08-1.33-.22-2.21-.66-2.21-1.22s1-1.22,3.54-1.66c4.42.11,8.52.44,12.72,1.33,5.2,0,14.05-.44,24.55-.88,3.54-.44,1.77-1.11,6.08-1.11,6.08,0,6.97.88,6.97,1.66,0,1.11-1.66,2.43-2.32,3.76-1.55,10.29-3.43,22.56-4.31,28.42,2.88.33,4.09,1.44,4.09,2.43,0,.55-.44,1.77-2.65,1.77-9.62.44-24.99.88-30.97,1.11-.77,5.31-2.21,7.74-3.54,7.74-.88,0-1.77-1.44-2.1-4.09ZM486.41,59.42c4.87-.11,12.05-.22,19.8-.55,4.09-.33,3.98-.66,6.08-1.33.55-10.29.88-23.56.77-29.75-6.86.22-19.69.66-25.55.88-1.33.66-2.1.11-2.1,1.44l1,29.31ZM541.16,8.43c-.11-1.88-6.08-4.53-10.73-6.64-1.22-.44-1.99-1-1.99-1.44,0-.66,1.33-1.22,4.65-1.33,4.76.77,9.18,1.88,12.72,2.99,2.32.88,2.88,1.66,2.88,2.77,0,.88-.33,1.88-.33,3.54v40.26h5.53c5.2-.77,3.43-2.88,10.51-2.88,2.1,0,6.75,0,6.75,3.43,0,1.55-1.33,2.88-3.76,2.88h-19.13l-.11,32.07c-.11,7.19-.88,11.72-2.76,16.37-.88,1.33-1.77,1.99-2.54,1.99-1,0-1.66-1.44-1.66-5.09V8.43Z"/>
    <path class="cls-1" d="M674.43,51.68c-5.75-.44-13.16-.66-20.57-.66-8.63,0-17.25.22-22.78.44-6.97.33-27.43,1.55-32.18,1.77-3.43.22-3.54,1.77-5.53,1.77-2.65,0-13.93-4.98-13.93-6.52,0-.33.44-.66,1.44-.66.55,0,1.22.11,2.1.33,3.1.77,10.29,1.11,19.69,1.11,15.37,0,36.5-.88,54.3-1.88,5.64-.33,4.64-2.21,10.62-2.21,5.31,0,10.73.44,10.73,3.76,0,1.44-1.44,2.77-3.54,2.77h-.33ZM605.97,83.75c-.11-1.33-2.32-1.99-5.97-2.99-1-.22-1.99-.55-1.99-1,0-.55,2.21-1.55,4.2-1.55,4.76,0,10.17.88,11.61,1.44,10.29,0,15.82-.33,26.32-.66,2.76-.22,3.21-.55,6.08-1,.33-2.32.44-6.64.66-12.17-7.3.22-21.68.55-32.29,1.11-3.21.66-3.76,1.77-5.64,1.77-2.21,0-10.73-3.54-10.73-4.87,0-.33.44-.55,1.55-.55.44,0,1,0,1.66.11,3.87.44,9.29.55,15.37.55,8.74,0,18.91-.33,27.54-1,1.77-.55,1.88-.88,3.76-.88,7.08,0,7.08,1.22,7.08,1.66,0,.88-1,2.1-1.44,3.21-1.22,3.43-2.99,8.41-3.54,10.51,2.99.55,4.53,1.66,4.53,2.54,0,.77-1.33,1.44-3.87,1.44-8.41.22-24.66.66-36.05,1-1.11.55-1.99.44-1.99,1.66v9.62c0,2.1,1.11,2.54,2.76,2.54,2.21,0,5.42.11,9.29.11,5.42,0,12.05-.11,18.58-.22,6.63-.77,4.42-2.88,11.28-2.88,3.1,0,8.63,0,8.63,3.21,0,1.33-1.44,2.54-3.87,2.54h-43.69c-8.07,0-9.84-2.88-9.84-6.08v-9.18ZM631.74,5.45c13.71,1.88,19.91,9.62,19.91,17.47,0,8.29-8.07,16.92-22.34,16.92s-22.89-8.85-22.89-17.92c0-7.41,5.75-14.6,17.81-16.48,1.66,0,2.43-1.33,2.43-2.21,0-.66-.22-1.44-.88-2.1-.66-.66-1-1.33-1-1.66,0-.44.44-.66,1.22-.66,2.1,0,6.64,1.55,6.64,3.21,0,.88-.88,1.77-.88,2.99v.44ZM613.05,22.48c0,6.52,5.42,12.94,16.15,12.94s16.04-6.41,16.04-12.94c-.11-6.53-5.53-13.05-16.26-13.05s-15.93,6.53-15.93,13.05Z"/>
  </g>
  <g>
    <path class="cls-2" d="M105.94,128.27h-39.97c-12.31,0-22.32-10.02-22.32-22.33v-39.97c0-12.31,10.01-22.33,22.32-22.33h39.97c12.31,0,22.33,10.02,22.33,22.33,0-19.41,8.43-36.89,21.82-48.98C138.39,6.44,122.9,0,105.94,0h-39.97C29.6,0,0,29.6,0,65.97v39.97c0,36.38,29.6,65.97,65.97,65.97h39.97c18.2,0,34.7-7.41,46.65-19.36l-31.08-30.64c-4.03,3.92-9.51,6.35-15.56,6.35Z"/>
    <path class="cls-3" d="M300.18,105.94v-39.97C300.18,29.6,270.58,0,234.2,0h-39.97c-16.96,0-32.45,6.44-44.15,17-13.39,12.08-21.82,29.56-21.82,48.98v39.97c0,6.26-2.6,11.92-6.76,15.97l31.08,30.64c11.94-11.94,19.33-28.43,19.33-46.61v-39.97c0-12.31,10.01-22.33,22.32-22.33h39.97c12.31,0,22.33,10.02,22.33,22.33v39.97c0,36.38,29.6,65.97,65.97,65.97v-43.65c-12.31,0-22.32-10.02-22.32-22.33Z"/>
  </g>
</svg>